<svg xmlns="http://www.w3.org/2000/svg" version="1.1" xmlns:xlink="http://www.w3.org/1999/xlink" xmlns:svgjs="http://svgjs.dev/svgjs" width="100%" height="100%" viewBox="0 0 1000 600"><rect width="1000" height="600" x="0" y="0" fill="#e7d045"/><g><rect width="333.3333333333333" height="333.3333333333333" rx="13.333333333333334" ry="13.333333333333334" y="191.16916644712595" fill="#a04ef6" transform="matrix(0.7398773090911133,0,0,0.7398773090911132,0,35.245390720033896)" x="168.9469757080078"/><path d="M273.7731136704855 431.9665300477088L226.7407404302661 431.9665300477088L223.92299467846203 418.35741758686777L235.79349805840266 414.4905111827962L277.87982822364677 282.83583733254545L300.54169831262436 282.83583733254545L342.8378606083219 414.4905111827962L352.9997309259984 418.35741758686777L350.63162545373746 431.9665300477088L301.620834983528 431.9665300477088L301.620834983528 419.01688999686445L319.0968538484407 414.4905111827962L309.62443195939704 382.53607531659236L264.5105239118954 382.53607531659236L254.79829387376216 415.12000757415666L273.7731136704855 418.80705786641096L273.7731136704855 431.9665300477088ZM286.9625618704195 306.57684409242677L269.9062072664139 364.19075191122954L302.4901395239782 364.19075191122954L286.9625618704195 306.57684409242677ZM392.9277877494351 432.83583458815895L392.9277877494351 432.83583458815895Q383.4253898417553 432.83583458815895 376.29109740633646 429.2686883704496Q369.18678098955377 425.7015421527401 365.19997051093736 419.1367940714093Q361.1831840136847 412.5420699714423 361.1831840136847 404.11880873466623L361.1831840136847 404.11880873466623Q361.1831840136847 393.986914435626 366.4889393122945 387.39219033565894Q371.7647185922682 380.82744225432816 380.0680757544993 377.0504639061652Q388.4014089353668 373.2734855580023 397.87383082441033 371.65478055164675Q407.3762287320901 370.0360755452912 415.79948996886617 369.79626739620153L415.79948996886617 369.79626739620153L415.79948996886617 354.2686897426428Q415.79948996886617 349.7423109285745 411.6028473597962 346.71473304631695Q407.3762287320901 343.68715516405933 399.4026077748572 343.68715516405933L399.4026077748572 343.68715516405933Q397.03450230259637 343.68715516405933 394.00692442033875 344.0168913690577Q390.97934653808113 344.346627574056 389.0309053267273 345.42576424495974L389.0309053267273 345.42576424495974L384.504526512659 359.24470883625423L362.0524885541349 351.4509439908387Q366.1592031072962 340.4497451513482 376.6208336113348 333.88499707001745Q387.08246411537334 327.2902729700504 400.2719123153074 327.2902729700504L400.2719123153074 327.2902729700504Q410.82347087525466 327.2902729700504 418.82706785112373 330.737515113215Q426.80068880835654 334.1847572563796 431.3270676224248 341.4389537663433Q435.88342245512933 348.6631742576708 435.88342245512933 360.08403735806826L435.88342245512933 360.08403735806826L435.88342245512933 411.88259756144555Q435.88342245512933 414.4905111827962 437.0524871819416 415.98931211460683Q438.25152792739016 417.5180890650538 440.4098012691976 417.5180890650538L440.4098012691976 417.5180890650538Q441.4889379401013 417.5180890650538 442.56807461100504 417.1883528600554Q443.64721128190865 416.85861665505706 444.06687554281564 416.64878452460357L444.06687554281564 416.64878452460357L447.3042855555268 426.9905109540973Q445.5956524932625 428.72912003499766 441.5788659960099 430.76748930226023Q437.59205551739353 432.83583458815895 432.6460124424183 432.83583458815895L432.6460124424183 432.83583458815895Q426.38102454744956 432.83583458815895 422.933782404285 430.0180888363549Q419.4565642424842 427.230319103187 417.5380990497665 422.9137724195722L417.5380990497665 422.9137724195722Q413.22155236615174 427.230319103187 406.8366603966382 430.0180888363549Q400.4817444457609 432.83583458815895 392.9277877494351 432.83583458815895ZM396.3750298925996 416.1991442450603L396.3750298925996 416.1991442450603Q402.6400177875683 416.1991442450603 407.9157970675419 412.9617342323493Q413.22155236615174 409.7243242196382 415.79948996886617 405.1979454055699L415.79948996886617 405.1979454055699L415.79948996886617 385.14398893794294Q411.06327902434435 385.14398893794294 405.21795539028267 385.8933894038483Q399.4026077748572 386.64278986975364 394.09685247624736 388.47132700656266Q388.8210731962738 390.2998641433717 385.3738310531092 393.7770823051725Q381.9265889099446 397.22432444833703 381.9265889099446 402.829839933309L381.9265889099446 402.829839933309Q381.9265889099446 408.2255232878275 385.5836631835627 412.2123337664439Q389.2407374571808 416.1991442450603 396.3750298925996 416.1991442450603Z " fill="#e7d045" transform="matrix(0.7398773090911133,0,0,0.7398773090911132,0,35.245390720033896)"/><path d="M620.0871036817039 392.0812774619373L587.5622283341584 392.0812774619373L585.6136379691684 382.6700005927304L593.822593123807 379.9958712620526L622.9270704902531 288.951095910606L638.5987121491087 288.951095910606L667.8482973086923 379.9958712620526L674.8756604334965 382.6700005927304L673.2380153395155 392.0812774619373L639.3449807995303 392.0812774619373L639.3449807995303 383.12605365687693L651.430386999415 379.9958712620526L644.8798066234913 357.89802733567694L613.6816310989176 357.89802733567694L606.9652132451224 380.43119464146525L620.0871036817039 382.9809458637394L620.0871036817039 392.0812774619373ZM629.2081649646357 305.36900621988326L617.4129743510262 345.2114602785081L639.9461416568145 345.2114602785081L629.2081649646357 305.36900621988326ZM709.6393417323071 392.68243831922143L709.6393417323071 392.68243831922143Q700.5390101341092 392.68243831922143 694.0506188123873 387.8938811456822Q687.5622274906654 383.12605365687693 684.121099824832 375.06220629537586Q680.7007018437325 366.9983589338748 680.7007018437325 357.15175868525523L680.7007018437325 357.15175868525523Q680.7007018437325 347.59537402291073 683.2297233812727 340.50582184390464Q685.7587449188129 333.41626966489855 690.0912490282054 328.79354996923087Q694.423753137598 324.1708302735632 700.1658758088984 321.93202432229805Q705.9079984801987 319.69321837103297 712.0439851614436 319.69321837103297L712.0439851614436 319.69321837103297Q715.9204362066897 319.69321837103297 718.9676998625782 320.35656828251894Q722.0356932032008 321.0406478787388 724.4196069476034 322.07713211543563L724.4196069476034 322.07713211543563L724.4196069476034 294.4651920498329L716.0655439998272 294.776137320842L714.7181144921213 285.65507603791013L733.6857760236727 282.8358389140949L738.453603512478 287.74877419603774L738.453603512478 378.19238869020023Q738.453603512478 379.9958712620526 739.2827909018355 381.03235549874944Q740.091248606459 382.08956942018017 741.5837859073023 382.08956942018017L741.5837859073023 382.08956942018017Q742.4751623508615 382.08956942018017 743.4494575333566 381.7164350949693Q744.4237527158515 381.34330076975846 744.7139683021267 381.17746329188697L744.7139683021267 381.17746329188697L746.9527742533918 388.0597186235537Q745.6260744304199 389.3864184465256 742.640999828733 391.0447932252405Q739.6559252270463 392.68243831922143 736.0696897680754 392.68243831922143L736.0696897680754 392.68243831922143Q731.8822934518204 392.68243831922143 729.4983797074177 390.878955747369Q727.114465963015 389.0962028602505 725.9121442484468 386.40134384483883L725.9121442484468 386.40134384483883Q722.9270696467601 389.5522559243971 718.7604030152389 391.10698227944226Q714.5730066989838 392.68243831922143 709.6393417323071 392.68243831922143ZM711.8781476835721 381.17746329188697L711.8781476835721 381.17746329188697Q715.6094909356806 381.17746329188697 719.2786451335872 379.16668387269516Q722.9270696467601 377.1559044535034 724.4196069476034 373.7147767876701L724.4196069476034 373.7147767876701L724.4196069476034 335.07464444361347Q722.4917462673474 332.9809462854859 719.5066716656605 332.00665110299093Q716.5215970639738 331.03235592049595 713.3706849844156 331.03235592049595L713.3706849844156 331.03235592049595Q707.5663732589135 331.03235592049595 703.524084735796 333.9552414679809Q699.5025258974124 336.85739733073194 697.3259090003492 342.68243874096794Q695.1700217880198 348.50748015120394 695.1700217880198 356.8615430989801L695.1700217880198 356.8615430989801Q695.1700217880198 363.57796095277536 696.8905856209365 369.09205709200234Q698.6111494538532 374.6268829159632 702.3424927059616 377.90217310392507Q706.07383595807 381.17746329188697 711.8781476835721 381.17746329188697ZM777.8607341916903 392.68243831922143L777.8607341916903 392.68243831922143Q771.2894241310325 392.68243831922143 766.3557591643558 390.215605835883Q761.442823882413 387.7487733525447 758.6857758127995 383.2089723958127Q755.9079980584521 378.6484417543468 755.9079980584521 372.8234003441108L755.9079980584521 372.8234003441108Q755.9079980584521 365.81676690404043 759.5771522563588 361.25623626257453Q763.2255767695315 356.71643530584254 768.9676994408318 354.10449502936666Q774.7305517968659 351.4925547528907 781.2811321727896 350.37315177725816Q787.8524422334473 349.25374880162565 793.6774836436833 349.08791132375416L793.6774836436833 349.08791132375416L793.6774836436833 338.3499346315753Q793.6774836436833 335.219752236751 790.7753277809323 333.1260540786235Q787.8524422334473 331.03235592049595 782.3383460942204 331.03235592049595L782.3383460942204 331.03235592049595Q780.7007010002394 331.03235592049595 778.6070028421119 331.2603824525692Q776.5133046839844 331.48840898464255 775.1658751762785 332.23467763506426L775.1658751762785 332.23467763506426L772.0356927814543 341.7910622974087L756.5091589157363 336.40134426658534Q759.3491257242855 328.79354996923087 766.5837856964291 324.2537490124989Q773.8184456685727 319.69321837103297 782.9395069515045 319.69321837103297L782.9395069515045 319.69321837103297Q790.2363559778499 319.69321837103297 795.7711818018109 322.07713211543563Q801.2852779410379 324.46104585983824 804.4154603358621 329.47762956545074Q807.5663724154205 334.4734835863293 807.5663724154205 342.3714934699589L807.5663724154205 342.3714934699589L807.5663724154205 378.19238869020023Q807.5663724154205 379.9958712620526 808.374830120044 381.03235549874944Q809.2040175094013 382.08956942018017 810.6965548102447 382.08956942018017L810.6965548102447 382.08956942018017Q811.4428234606664 382.08956942018017 812.1890921110881 381.8615428881069Q812.9353607615099 381.63351635603357 813.2255763477849 381.488408562896L813.2255763477849 381.488408562896L815.46438229905 388.6401497961039Q814.2827902692158 389.8424715106722 811.5050125148683 391.25209007257985Q808.7479644452548 392.68243831922143 805.3275664641553 392.68243831922143L805.3275664641553 392.68243831922143Q800.9950623547628 392.68243831922143 798.6111486103601 390.73384795423146Q796.2065051812235 388.8059872739754 794.8798053582517 385.8209126722886L794.8798053582517 385.8209126722886Q791.8947307565649 388.8059872739754 787.4793079082365 390.73384795423146Q783.0846147446421 392.68243831922143 777.8607341916903 392.68243831922143ZM780.2446479360929 381.17746329188697L780.2446479360929 381.17746329188697Q784.5771520454855 381.17746329188697 788.2255765586582 378.9386573406219Q791.8947307565649 376.6998513893568 793.6774836436833 373.5696689945325L793.6774836436833 373.5696689945325L793.6774836436833 359.7015099075293Q790.4021934557214 359.7015099075293 786.359904932604 360.2197520258777Q782.3383460942204 360.73799414422615 778.6691918963137 362.00250491299624Q775.020767383141 363.26701568176634 772.6368536387384 365.6716591109029Q770.2529398943358 368.0555728553055 770.2529398943358 371.93202390055154L770.2529398943358 371.93202390055154Q770.2529398943358 375.66336715266004 772.7819614318759 378.4204152222735Q775.3109829694162 381.17746329188697 780.2446479360929 381.17746329188697ZM862.4793072756167 432.8358376488553L824.4196061041104 432.8358376488553L822.4917454238542 424.77199028735424L830.700700578493 422.67829212922675L830.700700578493 331.03235592049595L822.3259079459829 331.9237323640552L820.8333706451394 322.67829297271976L839.9461399698283 319.54811057789544L843.6774832219369 323.880614687288Q846.6625578236236 322.07713211543563 850.5390088688697 320.8955400856013Q854.4154599141156 319.69321837103297 859.2040170876548 319.69321837103297L859.2040170876548 319.69321837103297Q868.5945642721279 319.69321837103297 875.1036852785837 324.3159380667007Q881.5920766003056 328.9386577623684 885.0124745814051 336.9403160696677Q888.4536022472386 344.921244692233 888.4536022472386 355.22389800499917L888.4536022472386 355.22389800499917Q888.4536022472386 364.32422960319707 886.0696885028358 371.3308630432674Q883.6857747584332 378.3582261680717 879.3532706490406 383.0431349179412Q875.020766539648 387.7487733525447 869.1335360752101 390.215605835883Q863.2255759260385 392.68243831922143 856.2189424859681 392.68243831922143L856.2189424859681 392.68243831922143Q853.0887600911437 392.68243831922143 850.1658745436588 392.164196200873Q847.2637186809078 391.6252243977907 844.7139674586336 390.5887401610939L844.7139674586336 390.5887401610939L844.7139674586336 421.0406470352458L862.4793072756167 424.6268824942167L862.4793072756167 432.8358376488553ZM856.0738346928305 381.34330076975846L856.0738346928305 381.34330076975846Q862.043983896204 381.34330076975846 866.0655427345877 378.04728089706265Q870.0871015729712 374.7719907091008 872.0356919379611 369.09205709200234Q873.9842823029511 363.43285315963783 873.9842823029511 355.9701666554209L873.9842823029511 355.9701666554209Q873.9842823029511 348.94280353061663 872.118610676897 343.28359959825207Q870.2529390508428 337.60366598115365 866.5215957987342 334.32837579319175Q862.7902525466258 331.03235592049595 856.9652111363897 331.03235592049595L856.9652111363897 331.03235592049595Q853.3789756774188 331.03235592049595 849.9378480115855 332.46270416713753Q846.517450030486 333.87232272904515 844.7139674586336 336.11112868031023L844.7139674586336 336.11112868031023L844.7139674586336 378.04728089706265Q846.8076656167611 379.539818197906 849.9378480115855 380.43119464146525Q853.0887600911437 381.34330076975846 856.0738346928305 381.34330076975846ZM923.8184444033333 392.68243831922143L923.8184444033333 392.68243831922143Q919.050616914528 392.68243831922143 915.3192736624194 390.73384795423146Q911.5879304103111 388.8059872739754 909.4942322521835 384.5356722187846Q907.4005340940558 380.2860868483277 907.4005340940558 373.7147767876701L907.4005340940558 373.7147767876701L907.711479365065 330.74214033422084L896.061396544593 330.74214033422084L893.8225905933278 321.18575567187634L894.8798045147586 319.69321837103297L907.8565871582025 319.69321837103297L908.00169495134 294.6102998429705L920.3980464222337 291.7910627191552L921.579638452068 293.8640311925488L921.4345306589305 319.69321837103297L936.9610645246486 319.69321837103297Q937.7073331750702 319.69321837103297 937.7073331750702 320.5845948145922L937.7073331750702 320.5845948145922L937.7073331750702 330.74214033422084L921.4345306589305 330.74214033422084L921.4345306589305 374.0257220586791Q921.4345306589305 378.3582261680717 922.8648789055721 379.6849259910436Q924.2744974674798 381.03235549874944 926.9693564828914 381.03235549874944L926.9693564828914 381.03235549874944Q929.7885936067067 381.03235549874944 932.628560415256 379.3947104047685Q935.4685272238052 377.75706531078754 936.6708489383734 376.8656888672283L936.6708489383734 376.8656888672283L939.9461391263353 386.8573969089854Q937.9975487613453 388.6401497961039 933.8308821298242 390.6716589000296Q929.6434858135691 392.68243831922143 923.8184444033333 392.68243831922143ZM968.9055086996439 392.68243831922143L968.9055086996439 392.68243831922143Q962.3341986389861 392.68243831922143 957.4005336723094 390.215605835883Q952.4875983903665 387.7487733525447 949.7305503207532 383.2089723958127Q946.9527725664058 378.6484417543468 946.9527725664058 372.8234003441108L946.9527725664058 372.8234003441108Q946.9527725664058 365.81676690404043 950.6219267643123 361.25623626257453Q954.270351277485 356.71643530584254 960.0124739487853 354.10449502936666Q965.7753263048195 351.4925547528907 972.3259066807433 350.37315177725816Q978.8972167414009 349.25374880162565 984.722258151637 349.08791132375416L984.722258151637 349.08791132375416L984.722258151637 338.3499346315753Q984.722258151637 335.219752236751 981.8201022888859 333.1260540786235Q978.8972167414009 331.03235592049595 973.383120602174 331.03235592049595L973.383120602174 331.03235592049595Q971.745475508193 331.03235592049595 969.6517773500656 331.2603824525692Q967.558079191938 331.48840898464255 966.2106496842322 332.23467763506426L966.2106496842322 332.23467763506426L963.0804672894079 341.7910622974087L947.5539334236898 336.40134426658534Q950.393900232239 328.79354996923087 957.6285602043827 324.2537490124989Q964.8632201765263 319.69321837103297 973.9842814594582 319.69321837103297L973.9842814594582 319.69321837103297Q981.2811304858036 319.69321837103297 986.8159563097645 322.07713211543563Q992.3300524489914 324.46104585983824 995.4602348438158 329.47762956545074Q998.611146923374 334.4734835863293 998.611146923374 342.3714934699589L998.611146923374 342.3714934699589L998.611146923374 378.19238869020023Q998.611146923374 379.9958712620526 999.4196046279975 381.03235549874944Q1000.248792017355 382.08956942018017 1001.7413293181984 382.08956942018017L1001.7413293181984 382.08956942018017Q1002.4875979686201 382.08956942018017 1003.2338666190417 381.8615428881069Q1003.9801352694634 381.63351635603357 1004.2703508557385 381.488408562896L1004.2703508557385 381.488408562896L1006.5091568070036 388.6401497961039Q1005.3275647771693 389.8424715106722 1002.5497870228219 391.25209007257985Q999.7927389532084 392.68243831922143 996.372340972109 392.68243831922143L996.372340972109 392.68243831922143Q992.0398368627164 392.68243831922143 989.6559231183137 390.73384795423146Q987.2512796891772 388.8059872739754 985.9245798662052 385.8209126722886L985.9245798662052 385.8209126722886Q982.9395052645184 388.8059872739754 978.52408241619 390.73384795423146Q974.1293892525956 392.68243831922143 968.9055086996439 392.68243831922143ZM971.2894224440464 381.17746329188697L971.2894224440464 381.17746329188697Q975.621926553439 381.17746329188697 979.2703510666119 378.9386573406219Q982.9395052645184 376.6998513893568 984.722258151637 373.5696689945325L984.722258151637 373.5696689945325L984.722258151637 359.7015099075293Q981.4469679636751 359.7015099075293 977.4046794405575 360.2197520258777Q973.383120602174 360.73799414422615 969.7139664042674 362.00250491299624Q966.0655418910945 363.26701568176634 963.681628146692 365.6716591109029Q961.2977144022893 368.0555728553055 961.2977144022893 371.93202390055154L961.2977144022893 371.93202390055154Q961.2977144022893 375.66336715266004 963.8267359398295 378.4204152222735Q966.3557574773697 381.17746329188697 971.2894224440464 381.17746329188697ZM1030.5348614136353 389.24131065338804L1023.8184435598401 392.3714930482124L1020.0871003077317 390.29852457481877L1020.0871003077317 294.17497646355787L1011.7330373599555 294.776137320842L1010.2405000591122 285.65507603791013L1029.353269383801 282.8358389140949L1033.9759890794687 287.74877419603774L1033.9759890794687 323.7147772094166Q1036.815955888018 321.93202432229805 1040.5472991401264 320.81262134666554Q1044.2786423922348 319.69321837103297 1048.6111465016274 319.69321837103297L1048.6111465016274 319.69321837103297Q1058.0016936861007 319.69321837103297 1064.4900850078225 324.3159380667007Q1070.9992060142783 328.9386577623684 1074.4196039953777 336.9403160696677Q1077.860731661211 344.921244692233 1077.860731661211 355.22389800499917L1077.860731661211 355.22389800499917Q1077.860731661211 364.32422960319707 1075.4768179168086 371.3308630432674Q1073.0721744876719 378.3582261680717 1068.760400063013 383.0431349179412Q1064.4278959536205 387.7487733525447 1058.5199358044488 390.215605835883Q1052.632705340011 392.68243831922143 1045.6260718999406 392.68243831922143L1045.6260718999406 392.68243831922143Q1041.4386755836856 392.68243831922143 1037.5622245384398 391.7910618756622Q1033.6857734931937 390.878955747369 1030.5348614136353 389.24131065338804L1030.5348614136353 389.24131065338804ZM1045.4602344220693 381.34330076975846L1045.4602344220693 381.34330076975846Q1051.4303836254426 381.34330076975846 1055.4726721485604 378.04728089706265Q1059.4942309869439 374.7719907091008 1061.4428213519338 369.09205709200234Q1063.37068203219 363.43285315963783 1063.37068203219 355.9701666554209L1063.37068203219 355.9701666554209Q1063.37068203219 348.94280353061663 1061.5050104061356 343.28359959825207Q1059.6393387800813 337.60366598115365 1055.845806473771 334.32837579319175Q1052.031544482727 331.03235592049595 1046.206503072491 331.03235592049595L1046.206503072491 331.03235592049595Q1042.7861050913916 331.03235592049595 1039.3449774255582 332.46270416713753Q1035.9245794444587 333.87232272904515 1033.9759890794687 336.11112868031023L1033.9759890794687 336.11112868031023L1033.9759890794687 378.04728089706265Q1036.069687237596 379.539818197906 1039.2827883713562 380.43119464146525Q1042.4751598203825 381.34330076975846 1045.4602344220693 381.34330076975846ZM1118.3043465771202 392.0812774619373L1087.251278845684 392.0812774619373L1086.0696868158498 384.0174301004362L1095.0249106209098 381.9237319423087L1095.0249106209098 294.4651920498329L1086.961063259409 294.4651920498329L1085.4685259585656 285.65507603791013L1104.1252422191078 282.8358389140949L1108.8930697079131 287.74877419603774L1108.8930697079131 381.77862414917115L1118.3043465771202 384.0174301004362L1118.3043465771202 392.0812774619373ZM1159.4942301434507 392.68243831922143L1159.4942301434507 392.68243831922143Q1149.7927376879688 392.68243831922143 1142.330051183752 388.3499342098288Q1134.867364679535 384.0174301004362 1130.617779309078 375.9535827389351Q1126.368193938621 367.910465062168 1126.368193938621 356.8615430989801L1126.368193938621 356.8615430989801Q1126.368193938621 345.06635248537054 1130.7628871022157 336.7744785917962Q1135.178309950544 328.50333438295576 1142.4751589768894 324.08791153462744Q1149.7927376879688 319.69321837103297 1158.7479614930292 319.69321837103297L1158.7479614930292 319.69321837103297Q1164.86321848954 319.69321837103297 1170.3151255745654 321.93202432229805Q1175.7670326595903 324.1708302735632 1179.208160325424 328.5655234371576Q1182.6285583065232 332.9809462854859 1182.6285583065232 339.69736413928115L1182.6285583065232 339.69736413928115Q1182.6285583065232 346.7039975793515 1179.4154571727634 351.32671727501923Q1176.223085723737 355.9701666554209 1170.8333676929137 358.64429598609865Q1165.4643793468244 361.3391550015103 1158.8930692861668 362.45855797714285Q1152.342488910243 363.57796095277536 1145.6260710564477 363.57796095277536L1145.6260710564477 363.57796095277536L1141.1484591539174 363.43285315963783Q1142.1849433906143 371.0406474569923 1146.9527708794196 376.1816092710084Q1151.7413280529588 381.34330076975846 1161.442820508441 381.34330076975846L1161.442820508441 381.34330076975846Q1167.2678619186768 381.34330076975846 1171.6625550822714 379.24960261163096Q1176.0572482458656 377.1559044535034 1179.0423228475524 374.6268829159632L1179.0423228475524 374.6268829159632L1182.1932349271106 385.2197518150045Q1180.0995367689832 387.14761249526055 1176.6584091031496 388.86817632817724Q1173.2380111220505 390.5887401610939 1168.822588273722 391.6252243977907Q1164.4278951101276 392.68243831922143 1159.4942301434507 392.68243831922143ZM1140.9826216760462 352.6741467827251L1140.9826216760462 352.6741467827251L1144.7139649281544 352.8192545758626Q1148.1550925939878 352.8192545758626 1152.2595701713071 352.38393119644996Q1156.3640477486265 351.92787813230336 1160.0124722617993 350.66336736353327Q1163.681626459706 349.3988565947632 1165.9826214651728 346.78691631828724Q1168.3043461553737 344.1749760418113 1168.3043461553737 339.98757972555626L1168.3043461553737 339.98757972555626Q1168.3043461553737 335.3648600298886 1165.3192715536868 333.271161871761Q1162.3341969520002 331.1774637136335 1158.7479614930292 331.1774637136335L1158.7479614930292 331.1774637136335Q1153.669188733215 331.1774637136335 1149.7927376879688 334.1003492611185Q1145.9162866427228 337.00250512386947 1143.5945619525219 341.9361700905462Q1141.2935669470548 346.8491053724891 1140.9826216760462 352.6741467827251Z " fill="#a04ef6" transform="matrix(0.7398773090911133,0,0,0.7398773090911132,0,35.245390720033896)"/></g></svg>